<svg width="185" height="325" viewBox="0 0 185 325" fill="none" xmlns="http://www.w3.org/2000/svg">
<path d="M1.73405 316.429H62.5698L62.5698 214.794H1.73405L1.73405 316.429Z" fill="#B2B2B2"/>
<path d="M62.329 316.429H123.165L123.165 214.794H62.329L62.329 316.429Z" fill="#D1D1D1"/>
<path d="M67.7939 118.686L75.1209 153.769L52.2363 156.716C52.2363 156.716 50.2523 120.258 52.2363 120.061C54.2203 119.884 67.7939 118.686 67.7939 118.686Z" fill="#A8754B"/>
<path d="M46.3828 83.4458C46.3828 83.4458 69.2478 86.6673 73.3533 121.456C73.3533 121.456 66.0656 129.294 56.7742 126.877L46.3828 83.4458Z" fill="#FFD686"/>
<path d="M36.4626 82.2475C36.4626 82.2475 14.1869 80.0475 6.34919 95.7426C-1.50819 111.438 21.3961 127.781 13.5387 163.748L62.9223 161.136V129.411C62.9223 129.411 71.919 116.29 59.1704 102.225C59.1704 102.225 58.4043 80.8529 36.4626 82.2475Z" fill="#FFD686"/>
<path d="M109.929 168.836C109.929 168.836 125.938 162.904 130.24 178.442C134.542 193.96 152.378 295.418 152.378 295.418H138.078L129.671 255.09C129.671 255.09 117.806 241.87 114.172 213.8L64.2776 207.848L109.929 168.836Z" fill="#B5845B"/>
<path d="M77.2031 205.962C77.2031 205.962 85.6891 205.726 100.756 200.933C115.822 196.121 126.567 201.208 120.635 218.18C114.702 235.132 84.7266 313.706 84.7266 313.706L73.3727 310.308L83.1747 259.431C83.1747 259.431 85.473 234.19 96.1198 219.398C96.1198 219.398 73.7262 220.518 66.0653 219.339C58.4436 218.18 77.2031 205.962 77.2031 205.962Z" fill="#A8754B"/>
<path d="M13.5391 163.748C13.5391 163.748 -4.57219 186.515 17.2124 208.869C17.2124 208.869 28.4288 221.932 77.8714 219.889C77.8714 219.889 90.836 176.124 118.415 164.357L61.3316 156.716L13.5391 163.748Z" fill="#0C2C40"/>
<path d="M37.6805 24.1226C37.6805 24.1226 43.5735 0.137903 23.1639 0.000399089C8.05813 -0.0978182 3.55978 17.9545 22.0836 30.0352L37.6805 24.1226Z" fill="#190D08"/>
<path d="M21.396 34.3961C21.396 34.3961 17.7031 24.9672 28.2319 20.1939C38.7608 15.4205 42.1199 26.7155 42.1199 26.7155L21.396 34.3961Z" fill="#FD6C75"/>
<path d="M61.39 55.8467C61.39 55.8467 76.594 46.85 60.1525 28.7781C49.8789 17.4831 31.8855 18.1117 21.8674 29.3084C11.8492 40.5052 21.2977 60.2469 21.2977 60.2469L28.114 48.9126L34.0856 40.1123L42.6305 36.6944L49.3289 37.1658L55.0059 37.8926L59.5828 39.8177L61.39 55.8467Z" fill="#27160C"/>
<path d="M48.9713 63.1164L31.8835 60.9216L28.425 87.8489L45.5128 90.0437L48.9713 63.1164Z" fill="#B5845B"/>
<path d="M30.0984 68.9293C30.0984 68.9293 31.9449 78.7314 39.8219 80.7154C42.2773 81.3243 44.9488 80.6171 46.4417 78.5938C46.8542 78.0438 47.1489 77.4152 47.2471 76.7081C47.6203 73.8794 40.1558 68.9293 40.1558 68.9293H30.0984Z" fill="#A8754B"/>
<path d="M42.1396 75.9027L41.2556 75.7848C31.4536 74.5276 24.5194 65.5505 25.7766 55.7485L26.7784 47.9697C28.0356 38.1676 37.0127 31.2334 46.8147 32.4906L47.6987 32.6085C57.5008 33.8657 64.4349 42.8427 63.1777 52.6448L62.1759 60.4236C60.9187 70.2257 51.9417 77.1598 42.1396 75.9027Z" fill="#B5845B"/>
<path d="M27.7015 53.8038C27.7015 53.8038 39.9983 49.7965 39.684 35.9872C39.684 35.9872 40.4698 25.694 29.7052 35.2211C18.9406 44.7482 27.7015 53.8038 27.7015 53.8038Z" fill="#27160C"/>
<path d="M30.4123 57.5754C29.9801 60.8755 26.9747 63.2131 23.6549 62.7809C20.3548 62.3488 18.0173 59.3433 18.4494 56.0432C18.8816 52.7431 21.887 50.4055 25.2068 50.8377C28.5069 51.2502 30.8444 54.2753 30.4123 57.5754Z" fill="#B5845B"/>
<path d="M34.3608 46.8893L33.8108 51.2502C32.5536 57.3986 29.9607 55.5324 29.0178 52.8806L34.3608 46.8893Z" fill="#27160C"/>
<path d="M65.0636 44.6696C65.0636 44.6696 52.5114 54.0788 34.1055 40.132C21.4158 30.5263 40.6075 27.0691 40.6075 27.0691L58.5026 30.762L65.0636 44.6696Z" fill="#27160C"/>
<path d="M28.4482 87.8263C28.4482 87.8263 39.1932 106.998 46.8149 101.105C55.0455 94.7407 36.4628 82.2476 36.4628 82.2476L28.4482 87.8263Z" fill="#B5845B"/>
<path d="M33.2018 126.877C33.2018 126.877 39.8412 139.115 44.3789 148.721L92.7803 145.932C92.7803 145.932 102.386 138.074 109.909 144.714L102.484 153.632L41.8842 167.048C39.5662 167.559 37.1501 166.891 35.4411 165.28C30.0785 160.212 18.4102 148.407 12.7529 136.365L33.2018 126.877Z" fill="#B5845B"/>
<path d="M167.543 108H108.063C106.098 108 104.409 109.375 104.016 111.281L92.8194 163.827C92.2694 166.4 94.2337 168.836 96.8659 168.836H157.348C159.332 168.836 161.041 167.422 161.414 165.477L171.629 112.931C172.1 110.377 170.136 108 167.543 108Z" fill="#B2B2B2"/>
<path d="M170.961 108H111.481C109.516 108 107.827 109.375 107.434 111.281L96.2373 163.827C95.6873 166.4 97.6517 168.836 100.284 168.836H160.766C162.75 168.836 164.459 167.422 164.832 165.477L175.047 112.931C175.518 110.377 173.574 108 170.961 108Z" fill="#D1D1D1"/>
<path d="M94.3909 164.357H53.7486C52.5111 164.357 51.5093 165.359 51.5093 166.597C51.5093 167.834 52.5111 168.836 53.7486 168.836H95.1767L94.3909 164.357Z" fill="#B2B2B2"/>
<path d="M134.13 137.053C134.13 140.628 137.037 143.535 140.612 143.535C144.187 143.535 147.095 140.628 147.095 137.053C147.095 133.478 144.187 130.57 140.612 130.57C137.037 130.57 134.13 133.458 134.13 137.053Z" fill="white"/>
<path d="M12.753 88.1012C11.9476 88.4548 -14.7085 101.557 11.5155 142.16C11.5155 142.16 28.2713 142.435 37.9752 129.961C37.9948 129.961 34.7733 78.4366 12.753 88.1012Z" fill="#FFD686"/>
<path d="M70.2885 308.088C70.6421 307.028 71.801 306.635 72.5868 307.322C74.119 308.678 76.8691 310.347 80.9156 309.935C85.139 309.522 86.7104 307.028 87.3194 305.24C87.6337 304.297 88.5373 303.826 89.3426 304.219L114.918 317.065C116.47 317.851 117.688 319.305 118.277 321.112C118.847 322.821 117.708 324.648 116.097 324.608L71.9189 323.391C70.1706 323.351 68.8545 321.642 68.992 319.658L69.7188 309.915C69.7385 309.758 69.7581 309.601 69.8171 309.444L70.2885 308.088Z" fill="#FD6C75"/>
<path d="M134.778 291.274C134.857 290.154 135.859 289.466 136.782 289.938C138.609 290.841 141.693 291.725 145.504 290.272C149.452 288.759 150.336 285.95 150.454 284.064C150.513 283.082 151.259 282.375 152.143 282.552L180.194 288.268C181.903 288.622 183.455 289.702 184.515 291.293C185.517 292.786 184.889 294.849 183.337 295.222L140.377 305.613C138.687 306.026 136.959 304.729 136.585 302.765L134.739 293.179C134.7 293.022 134.7 292.865 134.7 292.688L134.778 291.274Z" fill="#FD6C75"/>
</svg>
