<svg width="208" height="324" viewBox="0 0 208 324" fill="none" xmlns="http://www.w3.org/2000/svg">
<path d="M192.178 211.499H126.54V315.648H192.178V211.499Z" fill="#B2B2B2"/>
<path d="M126.797 211.499H61.1587V315.648H126.797V211.499Z" fill="#D1D1D1"/>
<path d="M92.4073 85.1994L89.6092 141.183L76.4517 182.236H100.139L112.443 146.864L116.287 106.666L92.4073 85.1994Z" fill="#F7EBE7"/>
<path d="M91.7452 280.874L96.5083 303.067L80.51 304.968L75.9604 283.117L91.7452 280.874Z" fill="#FCC9A7"/>
<path d="M97.4697 301.059C97.0639 299.863 95.7823 299.436 94.9066 300.205C93.1978 301.721 90.122 303.58 85.5724 303.131C80.852 302.661 79.0792 299.884 78.3957 297.877C78.0325 296.83 77.0286 296.296 76.1315 296.745L47.4884 311.141C45.7582 312.017 44.3912 313.64 43.7077 315.669C43.0669 317.57 44.3485 319.621 46.1427 319.578L95.6328 318.211C97.5766 318.168 99.0717 316.246 98.9008 314.024L98.0891 303.131C98.0677 302.96 98.0464 302.768 97.9823 302.597L97.4697 301.059Z" fill="#1F252A"/>
<path d="M91.4674 173.564H54.3231C54.3231 173.564 31.7033 172.304 30.3576 190.865C29.012 209.427 63.5291 262.527 68.9331 290.892L99.9898 288.329L77.6264 211.2L133.247 211.52C137.369 211.541 141.47 210.943 145.357 209.598C156.187 205.838 172.719 200.456 163.705 170.638L91.4674 173.564Z" fill="#092330"/>
<path d="M120.132 280.96L127.694 307.488L111.695 309.389L104.347 283.203L120.132 280.96Z" fill="#FCC9A7"/>
<path d="M128.654 305.481C128.249 304.284 126.967 303.857 126.091 304.626C124.383 306.143 121.307 308.001 116.757 307.552C112.037 307.083 110.264 304.306 109.58 302.298C109.217 301.251 108.213 300.717 107.316 301.166L78.6732 315.562C76.9431 316.438 75.576 318.061 74.8925 320.091C74.2517 321.992 75.5333 324.042 77.3275 323.999L127.672 322.632C129.616 322.59 131.111 320.667 130.94 318.446L129.253 307.552C129.231 307.382 129.21 307.189 129.146 307.019L128.654 305.481Z" fill="#1F252A"/>
<path d="M135.853 63.1991C136.686 64.0108 173.958 73.5158 173.958 73.5158L165.991 94.6831L125.237 91.6073L135.853 63.1991Z" fill="#F7EBE7"/>
<path d="M120.473 68.304C120.473 68.304 96.1876 77.1682 92.407 85.1994C93.7099 96.5413 97.7041 107.456 104.283 116.79C112.357 128.239 122.332 147.911 120.495 173.564H190.704C190.704 173.564 186.923 101.39 166.14 73.6866L120.473 68.304Z" fill="#F7EBE7"/>
<path d="M128.441 79.7527C135.34 78.343 139.783 71.6148 138.373 64.7156L134.251 44.5308L109.281 49.6358L113.404 69.8205C114.814 76.7197 121.542 81.1625 128.441 79.7527Z" fill="#FCC9A7"/>
<path d="M135.96 51.5795C135.96 51.5795 133.333 67.9409 120.603 68.9235C109.453 69.7778 110.521 53.6514 110.521 53.6514L135.96 51.5795Z" fill="#F4BE9A"/>
<path d="M121.606 59.9524L123.806 59.4398C134.849 56.8767 141.727 45.8551 139.164 34.8336L136.259 22.2528C133.696 11.2099 122.674 4.33215 111.653 6.89529L109.453 7.40793C98.4099 9.97107 91.5321 20.9926 94.0952 32.0141L97.0002 44.5949C99.5634 55.6378 110.585 62.5156 121.606 59.9524Z" fill="#FCC9A7"/>
<path d="M132.243 40.0667C131.731 40.9424 131.239 42.2667 131.069 44.2745C130.876 46.8163 129.595 49.2299 127.459 50.6397C121.329 54.698 116.651 44.424 107.594 46.2396C107.594 46.2396 104.049 46.7736 103.344 50.7251C102.639 54.6553 97.7049 47.7775 96.6156 43.0784C95.5262 38.3793 94.971 66.339 117.27 63.968C117.27 63.968 128.527 63.6049 136.11 52.1348C136.943 50.8746 137.434 49.4008 137.476 47.8843C137.541 45.6415 137.22 42.2454 135.084 39.8104C134.337 38.9133 132.842 39.0414 132.243 40.0667Z" fill="#1C2226"/>
<path d="M132.264 33.7229C132.264 33.7229 122.631 30.5403 124.255 16.4644C124.255 16.4644 100.332 39.1055 82.6035 22.4878C82.6035 22.4878 90.528 20.3732 93.796 14.9479C99.7554 5.05838 116.886 -8.56902 130.599 7.19434C130.599 7.19434 147.28 4.60983 142.496 30.3054L132.264 33.7229Z" fill="#1C2226"/>
<path d="M132.265 33.7229C133.183 37.6531 137.113 40.1094 141.043 39.2123C144.995 38.2939 147.43 34.3637 146.533 30.4335C145.614 26.5034 141.684 24.047 137.754 24.9441C133.802 25.8626 131.346 29.7928 132.265 33.7229Z" fill="#FCC9A7"/>
<path d="M120.089 78.9625L130.406 79.1547L123.186 94.1064L115.39 79.7741L120.089 78.9625Z" fill="#0C2C40"/>
<path d="M139.249 63.8612L125.963 79.3683L134.614 89.3005L150.527 67.4283C150.527 67.4283 146.447 60.8709 139.249 63.8612Z" fill="#FFF7F3"/>
<path d="M120.089 78.9625L112.443 87.5917L107.06 74.1352C107.06 74.1352 108.47 68.0904 112.87 69.2438L120.089 78.9625Z" fill="#FFF7F3"/>
<path d="M122.909 89.2791C122.909 89.2791 112.934 115.295 115.412 152.204L125.237 161.175L136.707 150.133L124.34 87.5917L122.909 89.2791Z" fill="#0C2C40"/>
<path d="M141.556 151.051L120.196 158.078L118.786 170.616L147.109 162.158L141.556 151.051Z" fill="#FCC9A7"/>
<path d="M123.379 166.366C123.379 173.692 117.441 179.651 110.093 179.651C102.767 179.651 96.8074 173.713 96.8074 166.366C96.8074 159.039 102.745 153.08 110.093 153.08C117.419 153.08 123.379 159.018 123.379 166.366Z" fill="#FCC9A7"/>
<path d="M120.474 173.564H83.351C83.351 173.564 60.7313 172.304 59.3856 190.865C58.04 209.427 95.0987 265.944 100.503 294.288L131.56 291.725L106.654 211.178L162.275 211.499C166.397 211.52 170.498 210.922 174.385 209.576C185.215 205.817 201.747 200.434 192.733 170.616L120.474 173.564Z" fill="#0C2C40"/>
<path d="M8.48549 107.926H72.671C74.7856 107.926 76.6011 109.4 77.0497 111.472L89.1391 168.16C89.7372 170.937 87.6013 173.564 84.7605 173.564H19.507C17.3711 173.564 15.5342 172.047 15.1283 169.954L4.10681 113.266C3.55146 110.489 5.66603 107.926 8.48549 107.926Z" fill="#B2B2B2"/>
<path d="M4.79042 107.926H68.9546C71.0692 107.926 72.8848 109.4 73.3333 111.472L85.4228 168.16C86.0208 170.937 83.9063 173.564 81.0441 173.564H15.812C13.676 173.564 11.8391 172.047 11.4333 169.954L0.411737 113.266C-0.143611 110.489 1.97096 107.926 4.79042 107.926Z" fill="#D1D1D1"/>
<path d="M87.3876 168.715H131.239C132.584 168.715 133.652 169.805 133.652 171.129C133.652 172.475 132.563 173.543 131.239 173.543H86.5332L87.3876 168.715Z" fill="#B2B2B2"/>
<path d="M44.5189 139.26C44.5189 143.127 41.4004 146.245 37.5344 146.245C33.6683 146.245 30.5498 143.105 30.5498 139.26C30.5498 135.394 33.6896 132.276 37.5344 132.276C41.4004 132.276 44.5189 135.394 44.5189 139.26Z" fill="white"/>
<path d="M158.643 93.6792L182.096 131.55L125.963 151.585L133.653 168.203C133.653 168.203 181.648 162.82 204.844 144.942C206.98 143.297 208.048 140.627 207.685 137.958C206.596 129.414 201.939 108.674 182.096 79.1974C178.059 73.1954 170.028 71.3798 163.77 75.0109C157.255 78.7702 154.97 87.1004 158.643 93.6792Z" fill="#F7EBE7"/>
<path d="M140.894 146.245L182.097 131.55L161.485 98.2501" stroke="#EADDD8" stroke-width="0.7599" stroke-miterlimit="10" stroke-linecap="round" stroke-linejoin="round"/>
<path d="M112.998 133.707L102.852 106.922" stroke="#EADDD8" stroke-width="0.7599" stroke-miterlimit="10" stroke-linecap="round" stroke-linejoin="round"/>
<path d="M141.555 167.071C141.555 167.071 173.082 163.119 188.974 154.02" stroke="#EADDD8" stroke-width="0.7599" stroke-miterlimit="10" stroke-linecap="round" stroke-linejoin="round"/>
</svg>
